<?xml version="1.0" standalone="no"?>
<!DOCTYPE svg PUBLIC "-//W3C//DTD SVG 20010904//EN"
 "http://www.w3.org/TR/2001/REC-SVG-20010904/DTD/svg10.dtd">
<svg version="1.0" xmlns="http://www.w3.org/2000/svg"
 width="160.000000pt" height="156.000000pt" viewBox="0 0 160.000000 156.000000"
 preserveAspectRatio="xMidYMid meet">

<g transform="translate(0.000000,156.000000) scale(0.100000,-0.100000)"
fill="#4381ff" stroke="none">
<path d="M531 1548 c-84 -15 -171 -85 -171 -138 0 -12 67 -139 150 -282 83
-143 150 -261 150 -264 0 -2 -134 -4 -297 -4 -164 0 -303 -4 -309 -8 -61 -40
-61 -244 0 -284 6 -4 145 -8 309 -8 163 0 297 -2 297 -4 0 -2 -48 -86 -107
-187 -65 -113 -106 -195 -106 -212 0 -51 103 -131 194 -151 43 -9 69 21 180
214 93 161 105 179 117 163 7 -10 45 -73 84 -141 48 -85 78 -126 95 -133 30
-11 105 5 149 32 42 26 94 85 94 107 0 10 -36 80 -80 156 -44 76 -80 142 -80
147 0 5 76 9 169 9 146 0 172 2 190 18 29 24 44 115 30 190 -17 93 -15 92
-216 92 -98 0 -173 4 -173 9 0 5 50 95 110 199 63 109 110 200 110 215 0 33
-51 92 -102 118 -51 26 -127 34 -150 16 -9 -7 -65 -96 -123 -198 -59 -101
-110 -187 -114 -191 -4 -4 -67 97 -140 225 -185 320 -176 310 -260 295z m470
-661 c31 -16 54 -40 77 -78 30 -48 33 -60 30 -114 -5 -76 -33 -120 -96 -147
-119 -53 -252 48 -252 191 0 135 122 210 241 148z"/>
</g>
</svg>
